<?xml version="1.0" encoding="utf-8"?>
<!-- Generator: Adobe Illustrator 16.0.0, SVG Export Plug-In . SVG Version: 6.00 Build 0)  -->
<!DOCTYPE svg PUBLIC "-//W3C//DTD SVG 1.1//EN" "http://www.w3.org/Graphics/SVG/1.1/DTD/svg11.dtd">
<svg version="1.1" id="Layer_1" xmlns="http://www.w3.org/2000/svg" xmlns:xlink="http://www.w3.org/1999/xlink" x="0px" y="0px"
	 width="434.631px" height="111.233px" viewBox="0 0 434.631 111.233" enable-background="new 0 0 434.631 111.233"
	 xml:space="preserve">
<g>
	<g>
		<path fill="#FFFFFF" d="M376.923,27.802c0,0-2.73,2.485-2.481,5.298c0.244,2.815,2.232,2.73,4.799,2.151
			c2.568-0.579,3.893-0.908,2.4-3.227C380.15,29.707,380.896,23.996,376.923,27.802z"/>
		<g>
			<path fill="#FFFFFF" d="M43.926,63.496c-2.628-0.044-12.416,1.449-12.416,1.449c-1.931-14.57,0-24.007,0.359-26.105
				c0.356-2.096,0.773-4.662,0.111-4.662c-0.664,0-3.562,0.827-4.113,3.613c-3.271,16.522-1.158,28.146-1.158,28.146
				c-7.479,1.38-8.223,2.046-8.665,2.539c-0.442,0.496-2.677,4.028-0.193,3.478c2.485-0.553,14.1-3.063,18.904-3.394
				c4.798-0.333,6.655-0.864,7.585-2.291C45.273,64.838,45.191,63.516,43.926,63.496z"/>
			<path fill="#FFFFFF" d="M73.561,29.763c3.811-0.044,5.962-3.395,4.015-3.437c0,0-18.168-1.615-46.561,3.104
				C2.618,34.149-3.672,43.256,1.792,40.605C28.806,27.508,69.755,29.803,73.561,29.763z"/>
			<path fill="#FFFFFF" d="M51.846,52.278c-1.835-3.039,3.964-5.967,0.217-9.116c-3.748-3.148-8.734,2.838-9.242,6.859
				c-0.508,4.022,3.11,3.913,3.34,5.569c0.167,1.185-5.076,5.38-3.861,6.069c1.214,0.691,2.607-0.538,4.192-1.875
				c1.914-1.611,3.353-2.214,3.77-1.924c0.419,0.293,3.512,2.295,5.932,4.405c2.417,2.11-0.838,5.112-3.913,3.329
				c-3.075-1.781-4.639-1.2-5.312-0.146c-0.673,1.056,0.135,1.966,0.985,2.391c2.761,1.391,8.03,3.396,11.149-0.743
				c3.118-4.139,0.384-7.173-1.821-9.409C55.074,55.453,53.147,54.434,51.846,52.278z"/>
			<path fill="#FFFFFF" d="M194.156,60.396c-9.281,1.672-9.546-1.933-9.604-4.938c-0.053-3.035,0.027-5.876-2.952-6.786
				c-2.979-0.913-11.089-0.833-14.679,4.771c-3.586,5.603-0.83,8.858,3.477,9.188c4.306,0.333,8.583-1.628,8.583-1.628
				C189.464,67.238,197.521,59.791,194.156,60.396z M177.379,55.513c-0.718,2.094-1.271,4.912-4.196,4.579
				c-2.756-0.311-2.869-3.864-0.33-6.869c2.537-3.008,6.263-2.677,6.843-1.13C180.466,54.144,178.096,53.415,177.379,55.513z"/>
			<path fill="#FFFFFF" d="M161.226,62.655c-3.615,0.026-9.877-1.96-12.169-11.038c0,0,7.616-6.707,14.901-23.758
				c7.285-17.055,6.789-27.072-0.083-27.815c-5.907-0.642-10.59,5.817-14.366,12.639c1.322-7.734-0.446-12.155-4.922-12.639
				c-6.869-0.747-12.088,8.111-16.142,15.974c-3.109,6.029-9.454,33.576,1.187,44.419c-8.91,4.174-14.401,2.316-17.413-0.437
				c3.348-2.397,5.104-6.419,4.139-8.797c-1.927-4.756-7.823-2.732-10.223,0.37c-2.4,3.107-3.933,8.115,3.683,11.549
				c7.132,3.217,16.184,1.063,21.591-1.16c3.153,2.289,7.46,3.385,13.26,2.65c2.181-0.275,2.181-1.268,2.181-1.849
				c0-1.078-1.296-0.138-4.913-0.109c-3.614,0.026-9.879-1.96-12.168-11.038c0,0,7.173-6.317,14.253-22.271
				c-2.613,15.645-1.57,37.987,19.936,35.267c2.18-0.275,2.18-1.268,2.18-1.849C166.139,61.686,164.841,62.626,161.226,62.655z
				 M110.063,57.254c-1.867-3.564,0.493-6.464,1.25-6.464C112.551,50.79,112.762,56.623,110.063,57.254z M128.75,47.559
				c0,0-2.431-16.832,4.967-32.835c7.394-16.004,11.809-14.679,11.918-7.285C145.749,14.833,141.774,34.369,128.75,47.559z
				 M148.038,47.559c0,0-2.428-16.832,4.966-32.835c7.394-16.004,11.809-14.679,11.92-7.285
				C165.036,14.833,161.061,34.369,148.038,47.559z"/>
			<path fill="#FFFFFF" d="M373.695,60.915c-8.821,6.863-14.073,2.069-15.729-3.312c-0.816-2.653-0.179-7.17,1.022-11.994
				c0.076-0.003,0.152-0.006,0.228-0.009c23.757-1.074,53.226,0.994,61.917,2.07c3.477,0.58,0.164-2.402-9.27-3.31
				c-7.365-0.711-29.045-0.941-52.218-1.226c1.173-4.188,2.646-8.411,3.869-11.689c1.571-4.22-1.327-8.111-3.23-2.732
				c-1.616,4.57-3.056,7.662-5.176,14.365c-5.046-0.063-10.12-0.131-15.098-0.209c-5.302-0.083-20.817-0.273-24.173-2.316
				c-3.809-2.318-9.189,3.643-3.146,3.643c0,0,19.707,2.145,41.587,1.578c-0.121,0.405-0.241,0.806-0.367,1.234
				c-1.587,5.417-1.751,10.752,0.323,14.54c-0.107,0.024-0.208,0.041-0.297,0.046c-6.908,0.363-4.921-9.17-10.092-9.324
				c-5.174-0.153-5.674,9.236-8.014,9.236c-1.686,0,2.109-6.062,0.796-7.645c-1.454-1.747-4.354-1.846-7.623,1.772
				c-1.424,1.58,4.062-1.159,3.429,1.542c-0.771,3.273-2.082,8.858,1.73,8.858c3.813,0,5.767-3.354,7.317-6.973
				c1.503-3.504,3.001-0.527,4.753,3.455c1.49,3.387,6.414,2.959,9.19,0.71c1.724,1.994,4.314,3.334,8.005,3.649
				C374.109,67.785,376.674,58.595,373.695,60.915z"/>
			<path fill="#FFFFFF" d="M432.528,46.464v-0.079c0,0,0.546-0.184,0.546-0.762c0-0.451-0.241-0.652-0.904-0.652h-1.119v2.855h0.613
				v-1.14h0.447l0.549,1.14h0.727c-0.189-0.382-0.377-0.77-0.568-1.147C432.771,46.575,432.66,46.484,432.528,46.464z
				 M431.994,46.232h-0.332v-0.787h0.41c0.268,0,0.35,0.084,0.35,0.348C432.422,46.03,432.256,46.232,431.994,46.232z"/>
			<path fill="#FFFFFF" d="M432.059,43.889c-1.422,0-2.58,1.156-2.58,2.575c0,1.423,1.158,2.576,2.58,2.576
				c1.425,0,2.572-1.153,2.572-2.576C434.631,45.045,433.483,43.889,432.059,43.889z M432.059,48.648
				c-1.203,0-2.189-0.98-2.189-2.184c0-1.212,0.986-2.186,2.189-2.186s2.182,0.973,2.182,2.186
				C434.24,47.668,433.262,48.648,432.059,48.648z"/>
			<path fill="#FFFFFF" d="M322.621,52.757c-6.446,0.021-10.589,3.223-12.499,6.313c-1.905,3.092,0.552,7.678,6.053,7.171
				c10.081-0.93,12.164-5.512,12.164-7.817S327.375,52.742,322.621,52.757z M317.228,62.292c-2.542-0.91-2.394-5.754,0.727-6.576
				c1.247-0.328,0.063,1.382,4.009,2.437C325.911,59.203,324.201,64.793,317.228,62.292z"/>
			<path fill="#FFFFFF" d="M94.557,57.098c-1.199,0.659-2.037,1.399-2.613,2.167c0.125-9.432,4.216-31.688,5.472-39.267
				c1.283-7.741-2.647-6.955-3.89-2.815c-1.241,4.139-4.762,12.417-6.83,16.473c-2.07,4.055-0.869,5.837,1.243,4.388
				c2.109-1.449,0.66,2.566-0.58,14.195c-0.315,2.947-0.392,5.842-0.21,8.514c-6.819,0.691-6.995-2.435-7.074-5.272
				c-0.084-3.037,0.027-5.878-2.952-6.789c-2.98-0.913-11.092-0.834-14.681,4.775c-3.585,5.599-0.828,8.855,3.477,9.188
				c4.305,0.329,8.582-1.628,8.582-1.628c2.883,2.691,9.838,2.467,12.905,2.219c0.921,6.6,3.687,11.303,8.726,11.055
				c7.576-0.369,8.238-7.446,8.238-11.919C104.369,59.423,100.794,53.67,94.557,57.098z M72.901,55.533
				c-0.718,2.098-1.27,4.912-4.195,4.582c-2.753-0.311-2.868-3.861-0.33-6.87s6.264-2.677,6.844-1.132
				C75.989,54.167,73.619,53.438,72.901,55.533z M96.67,70.454c-1.431-0.36-3.234-1.251-4.23-6.142
				c2.133-2.436,8.74-0.805,8.74,2.083C101.181,69.957,98.326,70.866,96.67,70.454z"/>
			<path fill="#FFFFFF" d="M298.814,57.098c-1.199,0.659-2.037,1.399-2.613,2.167c0.126-9.432,4.215-31.688,5.471-39.267
				c1.285-7.741-2.646-6.955-3.889-2.815c-1.242,4.139-4.76,12.417-6.83,16.473c-2.07,4.055-0.869,5.837,1.243,4.388
				c2.11-1.449,0.661,2.566-0.581,14.195c-0.375,3.514-0.412,6.949-0.074,10.025c-0.752,0.075-2.045,0.373-4.062,0.39
				c-3.614,0.026-9.876-1.96-12.165-11.038c0,0,7.613-6.707,14.898-23.758c7.283-17.055,6.787-27.072-0.082-27.815
				c-6.871-0.747-12.088,8.111-16.143,15.974c-3.148,6.103-9.605,34.249,1.59,44.805c-6.668,0.553-6.908-2.601-6.958-5.29
				c-0.056-3.034,0.028-5.876-2.95-6.786c-2.982-0.911-11.094-0.833-14.682,4.772c-3.588,5.604-0.828,8.859,3.477,9.19
				c4.305,0.333,8.582-1.629,8.582-1.629c6.271,3.73,11.672,2.563,14.281,1.153c3.117,2.106,7.314,3.085,12.885,2.38
				c0.771-0.097,1.26-0.286,1.581-0.514c1.037,6.148,3.776,10.439,8.597,10.201c7.572-0.369,8.236-7.446,8.236-11.919
				C308.627,59.423,305.052,53.67,298.814,57.098z M274.291,47.559c0,0-2.428-16.832,4.967-32.835
				c7.396-16.004,11.809-14.679,11.92-7.285C291.289,14.833,287.314,34.369,274.291,47.559z M261.445,55.59
				c-0.717,2.097-1.266,4.911-4.193,4.581c-2.756-0.312-2.871-3.863-0.332-6.87c2.539-3.009,6.265-2.678,6.845-1.133
				C264.533,54.223,262.166,53.492,261.445,55.59z M300.928,70.454c-1.431-0.36-3.234-1.251-4.23-6.142
				c2.133-2.436,8.74-0.805,8.74,2.083C305.438,69.957,302.584,70.866,300.928,70.454z"/>
			<path fill="#FFFFFF" d="M419.865,61.592c-6.908,0.363-4.92-9.17-10.092-9.324c-5.174-0.153-5.672,9.236-8.014,9.236
				c-1.685,0,2.109-6.062,0.796-7.645c-1.453-1.747-4.354-1.846-7.622,1.772c-1.424,1.58,4.062-1.159,3.428,1.542
				c-0.231,0.987-0.512,2.185-0.687,3.376c-6.427,1.541-12.37,1.633-17.099-2.367c-5.38-4.552-0.661-10.431-0.661-10.431
				c0.825-1.159-0.995-0.746-2.402,0.083c-1.407,0.828-2.483-0.415-3.642,1.241c-1.158,1.655-5.547,6.375,2.563,11.837
				c5.8,3.905,15.827,2.735,21.075,1.75c0.02,1.884,0.62,3.368,2.584,3.368c3.812,0,5.767-3.354,7.316-6.973
				c1.504-3.504,3.002-0.527,4.753,3.455c1.707,3.877,7.911,2.758,10.245-0.373C424.744,59.009,421.196,61.525,419.865,61.592z"/>
			<path fill="#FFFFFF" d="M241.449,54.853c5.676-2.219,10.972-5.417,15.494-9.94c5.083-5.083,4.71-11.863,4.71-11.863
				c-1.104-14.679-23.952-20.419-46.247-18.653c-22.297,1.768-41.916,7.769-47.129,19.207c-0.997,2.178-1.793,5.849-0.469,7.229
				c1.322,1.38,3.092,0.33,4.83-1.713c1.738-2.039,0.11-2.039-0.167-4.524c-0.896-8.067,21.522-14.677,41.832-15.562
				c41.855-1.821,46.199,18.723,39.292,24.832c-3.801,3.365-8.752,6.02-16.352,7.82c-6.254-3.866-14.74-6.162-23.287-6.331
				c0.184-1.724,0.327-3.056,0.399-3.779c0.332-3.309-1.875-1.766-2.316,0.884c0,0-0.177,1.093-0.455,2.901
				c-2.657,0.072-5.3,0.35-7.864,0.862c-11.553,2.312-13.554,12.016,3.157,12.94c0.901,0.05,1.813,0.09,2.731,0.122
				c-0.75,5.854-1.404,11.928-1.487,15.845c-0.058,2.593,3.309,2.153,3.697-6.014c0.125-2.655,0.402-6.147,0.731-9.763
				c7.556,0.088,15.529-0.537,23.093-2.594c3.637,3.169,5.316,7.175,5.316,11.107c0,8.665-12.387,13.86-21.025,13.054
				c-2.165-0.202-3.784-1.85-3.41-3.237c0.377-1.383-0.806-3.264-3.667-0.141c-2.859,3.119-2.754,5.766,2.051,6.526
				c6.489,1.028,32.251-1.338,32.251-17.515C247.16,62.076,244.993,58.112,241.449,54.853z M209.999,54.347
				c-11.553,0.155-10.474-2.348-4.852-3.118c1.975-0.271,3.849-0.448,5.645-0.559c-0.168,1.156-0.343,2.389-0.521,3.672
				C210.179,54.344,210.091,54.346,209.999,54.347z M213.033,54.287c0.126-1.28,0.253-2.533,0.377-3.728
				c6.656-0.139,11.988,0.834,16.121,2.525C224.867,53.715,219.428,54.122,213.033,54.287z"/>
		</g>
	</g>
	<g>
		<path fill="#FFFFFF" d="M141.82,106.218h-4.461v4.837h-1.889V99.789h1.889v4.657h4.461v-4.657h1.889v11.267h-1.889V106.218z"/>
		<path fill="#FFFFFF" d="M174.642,105.501c0-3.809,1.172-5.892,4.461-5.892c3.288,0,4.46,2.083,4.46,5.892
			c0,3.842-1.172,5.731-4.46,5.731C175.814,111.233,174.642,109.312,174.642,105.501z M181.594,105.501
			c0-2.781-0.619-4.133-2.491-4.133c-1.871,0-2.49,1.352-2.49,4.133c0,2.785,0.602,3.974,2.49,3.974
			C180.99,109.475,181.594,108.32,181.594,105.501z"/>
		<path fill="#FFFFFF" d="M218.845,105.032h3.157v5.892c0,0-2.359,0.31-3.646,0.31c-3.353,0-4.394-2.116-4.394-5.827
			c0-3.907,1.139-5.796,4.328-5.796c1.579,0,3.712,0.39,3.712,0.39l-0.048,1.66c0,0-2.034-0.259-3.388-0.259
			c-2.018,0-2.635,1.059-2.635,4.005c0,2.865,0.504,4.037,2.588,4.037c0.635,0,1.579-0.114,1.595-0.114v-2.638h-1.27V105.032z"/>
		<path fill="#FFFFFF" d="M254.859,99.789h3.598l2.653,11.267h-1.923l-0.617-2.248h-3.922l-0.555,2.248h-1.92L254.859,99.789z
			 M255.037,107.034h3.176l-1.27-5.567h-0.586L255.037,107.034z"/>
		<path fill="#FFFFFF" d="M295.577,107.148h-1.987v3.907h-1.888V99.789h4.054c2.459,0,3.809,1.092,3.809,3.631
			c0,1.661-0.604,2.67-1.758,3.256l1.758,4.38h-2.099l-1.532-3.925L295.577,107.148z M295.756,101.546h-2.166v3.891h2.199
			c1.188,0,1.822-0.861,1.822-1.984C297.611,102.248,296.879,101.546,295.756,101.546z"/>
	</g>
</g>
</svg>
